<svg xmlns="http://www.w3.org/2000/svg" width="39.541" height="40.378" viewBox="0 0 39.541 40.378">
  <g id="Group_16" data-name="Group 16" transform="translate(-2879.21 295.866)">
    <path id="Path_10" data-name="Path 10" d="M19.525,4.332c2.532,1.536,5.708,2.159,7.514,4.027s2.242,4.981,1.744,7.887a23.116,23.116,0,0,1-3.736,8.469c-1.806,2.8-4.006,5.687-6.663,6.04s-5.791-1.785-9.029-2.989S2.733,26.312,1.2,24.507C-.359,22.68-.089,19.318.3,16.453A24.626,24.626,0,0,1,2.256,9.106,20.811,20.811,0,0,1,6.719,3.356C8.628,1.53,10.911-.276,13.008.035S17.014,2.8,19.525,4.332Z" transform="matrix(0.899, 0.438, -0.438, 0.899, 2892.709, -295.866)" fill="#404161"/>
    <text id="S" transform="translate(2891.48 -289.677)" fill="#c09fe0" font-size="23" font-family="NovaRound, Nova Round"><tspan x="0" y="22">S</tspan></text>
  </g>
</svg>

